<svg width="720" height="1024" viewBox="0 0 720 1024" fill="none" xmlns="http://www.w3.org/2000/svg">
<g opacity="0.2" clip-path="url(#clip0_5556_41443)">
<path d="M787.301 -17.696C744.945 -3.28084 661.408 59.5054 666.106 195.329C671.979 365.108 800.114 471.353 832.148 631.522C855.791 749.739 852.436 1045.83 708.284 1170.22" stroke="#EC5C2A" stroke-width="1.5"/>
<path d="M720.457 -8.26929C678.101 6.14592 594.564 68.9322 599.262 204.755C605.135 374.535 733.27 480.78 765.304 640.949C788.947 759.166 785.592 1055.25 641.44 1179.65" stroke="#EC5C2A" stroke-width="1.5"/>
<path d="M653.091 -3.91992C610.735 10.4953 527.198 73.2815 531.896 209.105C537.769 378.884 665.904 485.129 697.938 645.298C721.581 763.515 718.226 1059.6 574.074 1184" stroke="#EC5C2A" stroke-width="1.5"/>
<path d="M585.608 -5.6897C543.252 8.72551 459.715 71.5118 464.413 207.335C470.286 377.114 598.421 483.36 630.455 643.529C654.099 761.745 650.743 1057.83 506.591 1182.23" stroke="#EC5C2A" stroke-width="1.5"/>
<path d="M518.718 -14.7811C476.362 -0.365919 392.825 62.4203 397.523 198.244C403.396 368.023 531.531 474.268 563.565 634.437C587.208 752.654 583.853 1048.74 439.701 1173.14" stroke="#EC5C2A" stroke-width="1.5"/>
<path d="M453.557 -32.4199C411.201 -18.0047 327.664 44.7815 332.362 180.605C338.235 350.384 466.37 456.629 498.404 616.798C522.047 735.015 518.692 1031.1 374.54 1155.5" stroke="#EC5C2A" stroke-width="1.5"/>
<path d="M380.527 -64.2935C338.171 -49.8782 254.634 12.908 259.332 148.731C265.205 318.51 393.34 424.756 425.374 584.925C449.017 703.142 445.662 999.229 301.51 1123.63" stroke="#EC5C2A" stroke-width="1.5"/>
<path d="M317.957 -89.6323C275.601 -75.2171 192.064 -12.4309 196.762 123.392C202.635 293.172 330.77 399.417 362.804 559.586C386.447 677.803 383.092 973.89 238.94 1098.29" stroke="#EC5C2A" stroke-width="1.5"/>
<path d="M253.508 -109.714C211.152 -95.2993 127.615 -32.513 132.314 103.31C138.187 273.089 266.322 379.335 298.356 539.504C321.999 657.72 318.644 953.808 174.492 1078.21" stroke="#EC5C2A" stroke-width="1.5"/>
<path d="M187.622 -124.417C145.267 -110.002 61.7296 -47.2157 66.4279 88.6076C72.3008 258.387 200.436 364.632 232.47 524.801C256.113 643.018 252.758 939.105 108.606 1063.5" stroke="#EC5C2A" stroke-width="1.5"/>
<path d="M120.764 -133.741C78.4078 -119.326 -5.12924 -56.5398 -0.430949 79.2835C5.44191 249.063 133.577 355.308 165.611 515.477C189.254 633.694 185.899 929.781 41.7469 1054.18" stroke="#EC5C2A" stroke-width="1.5"/>
<path d="M53.3803 -137.805C11.0245 -123.389 -72.5125 -60.6032 -67.8142 75.2201C-61.9414 244.999 66.1938 351.245 98.2276 511.414C121.871 629.63 118.516 925.717 -25.6364 1050.12" stroke="#EC5C2A" stroke-width="1.5"/>
<path d="M-14.1187 -136.815C-56.4745 -122.4 -140.012 -59.6137 -135.313 76.2096C-129.44 245.989 -1.30519 352.234 30.7286 512.403C54.3719 630.62 51.0167 926.707 -93.1354 1051.1" stroke="#EC5C2A" stroke-width="1.5"/>
</g>
<defs>
<clipPath id="clip0_5556_41443">
<rect width="720" height="1024" fill="white"/>
</clipPath>
</defs>
</svg>
